<svg xmlns="http://www.w3.org/2000/svg" viewBox="0 0 280 280" fill="none">
<defs><linearGradient id="gold" x1="40" y1="10" x2="240" y2="270" gradientUnits="userSpaceOnUse"><stop stop-color="#fff0cf"/><stop offset=".5" stop-color="#f2c78b"/><stop offset="1" stop-color="#a46c38"/></linearGradient><linearGradient id="chair" x1="90" y1="140" x2="90" y2="216" gradientUnits="userSpaceOnUse"><stop stop-color="#f1d3a8"/><stop offset="1" stop-color="#987049"/></linearGradient><radialGradient id="halo"><stop stop-color="#b17b4160"/><stop offset="1" stop-color="#0d0c0b00"/></radialGradient></defs>
<circle cx="140" cy="140" r="138" fill="url(#halo)"/><circle cx="140" cy="140" r="122" fill="#0d0c0b" stroke="url(#gold)" stroke-width="2.5"/><circle cx="224" cy="51" r="8" fill="url(#gold)"/>
<ellipse cx="140" cy="216" rx="74" ry="9" fill="#f2c78b" opacity=".12"/>
<rect x="96" y="71" width="89" height="61" rx="8" fill="#392b20" stroke="url(#gold)" stroke-width="4"/><path d="M97 93h87m-63-30v17m39-17v17" stroke="url(#gold)" stroke-width="5" stroke-linecap="round"/><path d="M117 107h8m11 0h8m11 0h8m-46 12h8m11 0h8m11 0h8" stroke="#f2c78b" stroke-width="4"/>
<path d="m64 142 10 37q2 10 12 10h22v-13H90l-10-34q-5-10-12-6-5 2-4 6Zm152 0-10 37q-2 10-12 10h-22v-13h18l10-34q5-10 12-6 5 2 4 6Z" fill="url(#chair)" stroke="#f2c78b" stroke-width="1.5"/>
<path d="m81 190-9 23m26-23 5 23m96-23 9 23m-26-23-5 23" stroke="#b48a5d" stroke-width="4" stroke-linecap="round"/><ellipse cx="140" cy="157" rx="42" ry="10" fill="url(#gold)"/><path d="M140 166v43" stroke="#d5aa74" stroke-width="6"/><ellipse cx="140" cy="211" rx="20" ry="4" fill="url(#gold)"/><ellipse cx="89" cy="179" rx="14" ry="4" fill="#ff9b6b" opacity=".7"/><ellipse cx="191" cy="179" rx="14" ry="4" fill="#ff9b6b" opacity=".7"/>
</svg>
